HIERARCHY
ROOT newVegas:Hips
{
	OFFSET 0.000000 96.479958 0.000000
	CHANNELS 6 Xposition Yposition Zposition Xrotation Yrotation Zrotation
	JOINT newVegas:Pelvis
	{
		OFFSET 0.000000 0.000000 0.000000
		CHANNELS 3 Xrotation Yrotation Zrotation
		JOINT newVegas:LeftUpLeg
		{
			OFFSET 18.735201 -5.666702 -4.541200
			CHANNELS 3 Xrotation Yrotation Zrotation
			JOINT newVegas:LeftLeg
			{
				OFFSET -0.021200 -31.938179 0.493100
				CHANNELS 3 Xrotation Yrotation Zrotation
				JOINT newVegas:LeftFoot
				{
					OFFSET 0.021200 -31.938179 -4.336299
					CHANNELS 3 Xrotation Yrotation Zrotation
					JOINT newVegas:LeftToeBase
					{
						OFFSET 0.943001 -26.722000 15.023500
						CHANNELS 3 Xrotation Yrotation Zrotation
						End Site
						{
							OFFSET 0.000000 30.670183 0.000000
						}
					}
				}
				JOINT newVegas:Left_PantLeg
				{
					OFFSET 0.663870 -9.044666 -1.108900
					CHANNELS 3 Xrotation Yrotation Zrotation
					End Site
					{
						OFFSET 1.415995 20.635357 0.000000
					}
				}
			}
		}
		JOINT newVegas:RightUpLeg
		{
			OFFSET -18.735201 -5.666702 -4.541200
			CHANNELS 3 Xrotation Yrotation Zrotation
			JOINT newVegas:RightLeg
			{
				OFFSET 0.018946 -31.938133 0.493100
				CHANNELS 3 Xrotation Yrotation Zrotation
				JOINT newVegas:RightFoot
				{
					OFFSET -0.018946 -31.938126 -4.336299
					CHANNELS 3 Xrotation Yrotation Zrotation
					JOINT newVegas:RightToeBase
					{
						OFFSET -0.943001 -26.722004 15.023500
						CHANNELS 3 Xrotation Yrotation Zrotation
						End Site
						{
							OFFSET 0.000000 30.670187 0.000000
						}
					}
				}
				JOINT newVegas:Right_PantLeg
				{
					OFFSET -0.661674 -9.044716 -1.108900
					CHANNELS 3 Xrotation Yrotation Zrotation
					End Site
					{
						OFFSET -1.415958 20.635269 0.000000
					}
				}
			}
		}
	}
	JOINT newVegas:Spine
	{
		OFFSET 0.000000 10.199997 -0.299500
		CHANNELS 3 Xrotation Yrotation Zrotation
		JOINT newVegas:Spine1
		{
			OFFSET 0.000000 11.900002 -1.516600
			CHANNELS 3 Xrotation Yrotation Zrotation
			JOINT newVegas:Spine2
			{
				OFFSET 0.000000 13.600006 -2.842500
				CHANNELS 3 Xrotation Yrotation Zrotation
				JOINT newVegas:Neck
				{
					OFFSET 0.000000 9.624100 -2.890100
					CHANNELS 3 Xrotation Yrotation Zrotation
					JOINT newVegas:Head
					{
						OFFSET 0.000000 14.068802 -1.351900
						CHANNELS 3 Xrotation Yrotation Zrotation
						JOINT newVegas:Hair_Back
						{
							OFFSET 0.000000 3.231903 -17.524799
							CHANNELS 3 Xrotation Yrotation Zrotation
							End Site
							{
								OFFSET 0.000000 19.849884 0.000000
							}
						}
						JOINT newVegas:Hair_Front
						{
							OFFSET 0.000000 31.260406 4.573800
							CHANNELS 3 Xrotation Yrotation Zrotation
							JOINT newVegas:Hair_Front1
							{
								OFFSET 0.000000 2.284103 11.993300
								CHANNELS 3 Xrotation Yrotation Zrotation
								JOINT newVegas:Hair_Front2
								{
									OFFSET 0.000000 2.284103 11.993300
									CHANNELS 3 Xrotation Yrotation Zrotation
									End Site
									{
										OFFSET 0.000000 12.208862 0.000000
									}
								}
							}
						}
						JOINT newVegas:Jowel
						{
							OFFSET 0.000000 -7.458206 6.864100
							CHANNELS 3 Xrotation Yrotation Zrotation
							End Site
							{
								OFFSET 0.000000 19.849884 0.000000
							}
						}
					}
				}
				JOINT newVegas:LeftShoulder
				{
					OFFSET 15.263000 10.923401 -0.547700
					CHANNELS 3 Xrotation Yrotation Zrotation
					JOINT newVegas:LeftArm
					{
						OFFSET 25.438599 -2.830597 -13.032500
						CHANNELS 3 Xrotation Yrotation Zrotation
						JOINT newVegas:LeftForeArm
						{
							OFFSET 29.960503 0.000000 0.000000
							CHANNELS 3 Xrotation Yrotation Zrotation
							JOINT newVegas:LeftHand
							{
								OFFSET 27.849251 0.000000 0.000000
								CHANNELS 3 Xrotation Yrotation Zrotation
								JOINT newVegas:LeftHandThumb1
								{
									OFFSET 4.487587 -3.305161 6.305391
									CHANNELS 3 Xrotation Yrotation Zrotation
									JOINT newVegas:LeftHandThumb2
									{
										OFFSET 5.480453 -3.164139 3.164143
										CHANNELS 3 Xrotation Yrotation Zrotation
										JOINT newVegas:LeftHandThumb3
										{
											OFFSET 5.159721 -2.978973 2.978967
											CHANNELS 3 Xrotation Yrotation Zrotation
											End Site
											{
												OFFSET 2.494507 5.926697 1.738678
											}
										}
									}
								}
								JOINT newVegas:LeftHandIndex1
								{
									OFFSET 18.578728 -0.527832 5.208049
									CHANNELS 3 Xrotation Yrotation Zrotation
									JOINT newVegas:LeftHandIndex2
									{
										OFFSET 3.192009 0.000000 0.000000
										CHANNELS 3 Xrotation Yrotation Zrotation
										JOINT newVegas:LeftHandIndex3
										{
											OFFSET 3.835129 0.000000 0.000000
											CHANNELS 3 Xrotation Yrotation Zrotation
											End Site
											{
												OFFSET -0.034599 3.816971 0.371180
											}
										}
									}
								}
								JOINT newVegas:LeftHandMiddle1
								{
									OFFSET 18.476105 0.000000 0.000000
									CHANNELS 3 Xrotation Yrotation Zrotation
									JOINT newVegas:LeftHandMiddle2
									{
										OFFSET 3.324875 0.000000 0.000000
										CHANNELS 3 Xrotation Yrotation Zrotation
										JOINT newVegas:LeftHandMiddle3
										{
											OFFSET 4.596550 0.000000 0.000000
											CHANNELS 3 Xrotation Yrotation Zrotation
											End Site
											{
												OFFSET 0.057701 4.578827 0.399218
											}
										}
									}
								}
								JOINT newVegas:LeftHandRing1
								{
									OFFSET 17.732719 0.121887 -4.201567
									CHANNELS 3 Xrotation Yrotation Zrotation
									JOINT newVegas:LeftHandRing2
									{
										OFFSET 2.733170 0.000000 0.000000
										CHANNELS 3 Xrotation Yrotation Zrotation
										JOINT newVegas:LeftHandRing3
										{
											OFFSET 3.178268 0.000000 0.000000
											CHANNELS 3 Xrotation Yrotation Zrotation
											End Site
											{
												OFFSET 0.119102 3.170624 0.185394
											}
										}
									}
								}
								JOINT newVegas:LeftHandPinky1
								{
									OFFSET 15.989624 -0.606689 -7.535461
									CHANNELS 3 Xrotation Yrotation Zrotation
									JOINT newVegas:LeftHandPinky2
									{
										OFFSET 2.538986 0.000000 0.000000
										CHANNELS 3 Xrotation Yrotation Zrotation
										JOINT newVegas:LeftHandPinky3
										{
											OFFSET 2.593102 0.000000 0.000000
											CHANNELS 3 Xrotation Yrotation Zrotation
											End Site
											{
												OFFSET -0.150902 2.584198 0.152708
											}
										}
									}
								}
							}
							JOINT newVegas:Left_Sleeve
							{
								OFFSET 0.267448 -0.649796 0.577675
								CHANNELS 3 Xrotation Yrotation Zrotation
								End Site
								{
									OFFSET 0.000000 15.991241 0.000000
								}
							}
							JOINT newVegas:Left_CapeC
							{
								OFFSET 15.715958 -8.608795 -6.935905
								CHANNELS 3 Xrotation Yrotation Zrotation
								JOINT newVegas:Left_CapeC1
								{
									OFFSET 0.000000 -8.688499 0.000000
									CHANNELS 3 Xrotation Yrotation Zrotation
									End Site
									{
										OFFSET 0.000000 8.688499 0.000000
									}
								}
							}
						}
						JOINT newVegas:Left_CapeB
						{
							OFFSET 26.118385 -8.608795 -7.079235
							CHANNELS 3 Xrotation Yrotation Zrotation
							JOINT newVegas:Left_CapeB1
							{
								OFFSET 0.000000 -8.688499 0.000000
								CHANNELS 3 Xrotation Yrotation Zrotation
								End Site
								{
									OFFSET 0.000000 8.688499 0.000000
								}
							}
						}
						JOINT newVegas:Left_CapeA
						{
							OFFSET 5.115639 -8.608795 -10.395809
							CHANNELS 3 Xrotation Yrotation Zrotation
							JOINT newVegas:Left_CapeA1
							{
								OFFSET 0.000000 -8.688499 0.000000
								CHANNELS 3 Xrotation Yrotation Zrotation
								End Site
								{
									OFFSET 0.000000 8.688499 0.000000
								}
							}
						}
					}
				}
				JOINT newVegas:RightShoulder
				{
					OFFSET -15.263000 10.923401 -0.547700
					CHANNELS 3 Xrotation Yrotation Zrotation
					JOINT newVegas:RightArm
					{
						OFFSET -25.438599 -2.830597 -13.032500
						CHANNELS 3 Xrotation Yrotation Zrotation
						JOINT newVegas:RightForeArm
						{
							OFFSET -29.960503 0.000000 0.000000
							CHANNELS 3 Xrotation Yrotation Zrotation
							JOINT newVegas:RightHand
							{
								OFFSET -27.849251 0.000000 0.000000
								CHANNELS 3 Xrotation Yrotation Zrotation
								JOINT newVegas:RightHandThumb1
								{
									OFFSET -4.487587 -3.305161 6.305391
									CHANNELS 3 Xrotation Yrotation Zrotation
									JOINT newVegas:RightHandThumb2
									{
										OFFSET -5.480453 -3.164139 3.164143
										CHANNELS 3 Xrotation Yrotation Zrotation
										JOINT newVegas:RightHandThumb3
										{
											OFFSET -5.159721 -2.978973 2.978967
											CHANNELS 3 Xrotation Yrotation Zrotation
											End Site
											{
												OFFSET -2.494507 5.926697 1.738678
											}
										}
									}
								}
								JOINT newVegas:RightHandIndex1
								{
									OFFSET -18.578728 -0.527832 5.208049
									CHANNELS 3 Xrotation Yrotation Zrotation
									JOINT newVegas:RightHandIndex2
									{
										OFFSET -3.192009 0.000000 0.000000
										CHANNELS 3 Xrotation Yrotation Zrotation
										JOINT newVegas:RightHandIndex3
										{
											OFFSET -3.835129 0.000000 0.000000
											CHANNELS 3 Xrotation Yrotation Zrotation
											End Site
											{
												OFFSET 0.034599 3.816971 0.371180
											}
										}
									}
								}
								JOINT newVegas:RightHandMiddle1
								{
									OFFSET -18.476105 0.000000 0.000000
									CHANNELS 3 Xrotation Yrotation Zrotation
									JOINT newVegas:RightHandMiddle2
									{
										OFFSET -3.324875 0.000000 0.000000
										CHANNELS 3 Xrotation Yrotation Zrotation
										JOINT newVegas:RightHandMiddle3
										{
											OFFSET -4.596550 0.000000 0.000000
											CHANNELS 3 Xrotation Yrotation Zrotation
											End Site
											{
												OFFSET -0.057701 4.578827 0.399218
											}
										}
									}
								}
								JOINT newVegas:RightHandRing1
								{
									OFFSET -17.732719 0.121887 -4.201567
									CHANNELS 3 Xrotation Yrotation Zrotation
									JOINT newVegas:RightHandRing2
									{
										OFFSET -2.733170 0.000000 0.000000
										CHANNELS 3 Xrotation Yrotation Zrotation
										JOINT newVegas:RightHandRing3
										{
											OFFSET -3.178268 0.000000 0.000000
											CHANNELS 3 Xrotation Yrotation Zrotation
											End Site
											{
												OFFSET -0.119102 3.170624 0.185394
											}
										}
									}
								}
								JOINT newVegas:RightHandPinky1
								{
									OFFSET -15.989624 -0.606689 -7.535461
									CHANNELS 3 Xrotation Yrotation Zrotation
									JOINT newVegas:RightHandPinky2
									{
										OFFSET -2.538986 0.000000 0.000000
										CHANNELS 3 Xrotation Yrotation Zrotation
										JOINT newVegas:RightHandPinky3
										{
											OFFSET -2.593102 0.000000 0.000000
											CHANNELS 3 Xrotation Yrotation Zrotation
											End Site
											{
												OFFSET 0.150902 2.584198 0.152708
											}
										}
									}
								}
							}
							JOINT newVegas:Right_CapeC
							{
								OFFSET -15.715958 -8.608795 -6.935905
								CHANNELS 3 Xrotation Yrotation Zrotation
								JOINT newVegas:Right_CapeC1
								{
									OFFSET 0.000000 -8.688499 0.000000
									CHANNELS 3 Xrotation Yrotation Zrotation
									End Site
									{
										OFFSET 0.000000 8.688499 0.000000
									}
								}
							}
							JOINT newVegas:Right_Sleeve
							{
								OFFSET -0.267448 -0.649994 0.577675
								CHANNELS 3 Xrotation Yrotation Zrotation
								End Site
								{
									OFFSET 0.000000 15.991302 0.000000
								}
							}
						}
						JOINT newVegas:Right_CapeA
						{
							OFFSET -5.115540 -8.608795 -10.395824
							CHANNELS 3 Xrotation Yrotation Zrotation
							JOINT newVegas:Right_CapeA1
							{
								OFFSET 0.000000 -8.688499 0.000000
								CHANNELS 3 Xrotation Yrotation Zrotation
								End Site
								{
									OFFSET 0.000000 8.688499 0.000000
								}
							}
						}
						JOINT newVegas:Right_CapeB
						{
							OFFSET -26.118187 -8.608795 -7.079266
							CHANNELS 3 Xrotation Yrotation Zrotation
							JOINT newVegas:Right_CapeB1
							{
								OFFSET 0.000000 -8.688499 0.000000
								CHANNELS 3 Xrotation Yrotation Zrotation
								End Site
								{
									OFFSET 0.000000 8.688499 0.000000
								}
							}
						}
					}
				}
				JOINT newVegas:Left_Collar
				{
					OFFSET 18.625099 8.655502 8.828100
					CHANNELS 3 Xrotation Yrotation Zrotation
					JOINT newVegas:Left_Collar1
					{
						OFFSET 14.783401 10.540405 -1.259500
						CHANNELS 3 Xrotation Yrotation Zrotation
						End Site
						{
							OFFSET 0.000000 18.199875 0.000000
						}
					}
				}
				JOINT newVegas:Collar_Back
				{
					OFFSET 0.000000 15.630707 -20.132601
					CHANNELS 3 Xrotation Yrotation Zrotation
					End Site
					{
						OFFSET 0.000000 22.523010 0.000000
					}
				}
				JOINT newVegas:Left_Peck
				{
					OFFSET 17.239599 -5.132599 25.482599
					CHANNELS 3 Xrotation Yrotation Zrotation
					End Site
					{
						OFFSET 0.000000 22.523010 0.000000
					}
				}
				JOINT newVegas:Right_Peck
				{
					OFFSET -17.239599 -5.132202 25.482599
					CHANNELS 3 Xrotation Yrotation Zrotation
					End Site
					{
						OFFSET 0.000000 22.523010 0.000000
					}
				}
				JOINT newVegas:Right_Collar
				{
					OFFSET -18.625099 8.655792 8.828100
					CHANNELS 3 Xrotation Yrotation Zrotation
					JOINT newVegas:Right_Collar1
					{
						OFFSET -14.783401 10.539993 -1.259500
						CHANNELS 3 Xrotation Yrotation Zrotation
						End Site
						{
							OFFSET 0.000000 18.199631 0.000000
						}
					}
				}
			}
		}
		JOINT newVegas:Belly
		{
			OFFSET 0.000000 -6.540398 9.014299
			CHANNELS 3 Xrotation Yrotation Zrotation
			End Site
			{
				OFFSET 0.000000 11.566666 0.000000
			}
		}
	}
	JOINT newVegas:ElvisFacialAnim_Joint
	{
		OFFSET 1.000000 -95.330101 -8.825800
		CHANNELS 3 Xrotation Yrotation Zrotation
		End Site
		{
			OFFSET 0.000000 35.315800 0.000000
		}
	}
}
MOTION
Frames: 4
Frame Time: 0.016667
-2.529498 83.444298 1.048874 9.511146 -61.528345 10.139759 -0.000000 0.000000 -0.000000 -41.485073 6.895422 29.340983 42.478709 -8.847777 1.133782 -6.287316 -1.078089 -21.276828 0.000000 0.000002 0.000000 -0.000000 -0.000006 -0.000001 -31.349701 -15.811864 -39.180161 41.613532 6.255118 -4.183999 -15.614115 -2.028782 28.891529 0.000000 -0.000000 -0.000000 -0.000001 0.000000 0.000002 15.067191 -0.416247 -4.278141 5.872805 0.571264 -2.801488 5.868637 0.648867 -2.855437 -0.719528 0.307217 0.742027 -0.719539 0.307221 0.742016 -0.000003 0.000000 -0.000001 -0.719452 0.307217 0.742026 -0.719511 0.307208 0.742026 -0.000000 0.000002 -0.000001 -0.000003 0.000000 -0.000001 1.829293 -3.192739 -12.271665 -39.386706 26.350108 -34.911996 0.430068 -46.810145 0.421476 -10.315199 -0.130083 0.363156 40.109893 -15.297167 -0.360490 5.639906 28.097791 11.338767 0.000002 -0.000001 -0.000008 6.882271 2.840037 -61.140493 8.248008 7.640045 -89.897891 0.000000 -0.000000 0.000001 -2.345524 4.688856 -62.655217 8.754161 9.897041 -87.051253 0.000004 -0.000001 0.000001 -9.042485 10.045609 -60.766178 8.523966 9.508848 -66.892953 -0.000001 0.000001 -0.000001 -17.946858 14.755024 -51.485904 8.868378 8.667019 -84.812078 -0.000002 -0.000002 0.000001 0.000001 0.000000 -0.000003 0.000001 0.000000 -0.000003 0.000000 0.000001 -0.000003 -0.000001 -0.000001 0.000001 -0.000000 -0.000001 -0.000003 -0.000001 -0.000001 0.000001 -0.000001 -0.000000 0.000000 0.631519 7.257352 8.703788 7.936901 -9.680970 53.430787 -22.866906 36.192155 17.964123 -27.375403 10.434876 -17.812406 -2.346140 -6.100524 10.731433 2.364018 -23.806273 -8.771115 0.000002 -0.000001 -0.000000 -0.054781 0.532072 0.738714 0.019713 -0.087377 5.078565 -0.000000 0.000005 0.000003 0.348268 -5.918481 2.583792 1.432614 -4.204241 24.052091 -0.000001 -0.000001 0.000001 1.205832 -11.756077 4.154752 1.794829 -3.771854 26.865415 0.000001 0.000001 0.000000 2.126201 -19.166850 11.319898 3.354802 -2.122210 18.828578 -0.000001 -0.000002 -0.000000 -0.000001 0.000002 -0.000000 -0.000001 0.000001 -0.000002 -0.000001 0.000001 -0.000001 0.000002 -0.000002 -0.000000 0.000002 -0.000001 -0.000003 0.000002 -0.000002 -0.000000 0.000002 -0.000001 -0.000001 0.000002 -0.000001 0.000000 0.000002 -0.000001 0.000000 0.000002 -0.000001 0.000000 0.000002 -0.000001 0.000000 0.000002 -0.000001 0.000000 0.000002 -0.000001 0.000000 0.000002 -0.000001 0.000000 -0.000002 0.000000 0.000001 -0.000000 0.000000 -0.000000 
-2.517477 83.491127 1.022999 8.480400 -61.816661 8.958164 0.000000 -0.000001 -0.000000 -41.096722 6.801732 29.806160 42.794977 -8.315824 1.171747 -6.510776 -1.661065 -21.436897 0.000000 0.000002 0.000000 -0.000000 -0.000003 -0.000001 -30.979091 -16.258000 -38.989940 41.469473 7.942784 -4.061382 -15.488600 -3.101588 28.180710 -0.000000 -0.000000 -0.000000 -0.000001 -0.000000 -0.000002 14.988582 -0.411734 -4.268300 5.836666 0.551933 -2.747394 5.832882 0.628948 -2.797350 -0.694923 0.330370 0.733784 -0.694932 0.330381 0.733790 -0.000000 0.000001 0.000001 -0.694933 0.330393 0.733787 -0.694929 0.330394 0.733784 -0.000002 -0.000001 -0.000000 -0.000000 0.000001 0.000000 1.808130 -3.150469 -12.416799 -36.014703 24.816584 -34.515145 0.404977 -47.203314 0.405365 -13.147528 -0.038066 2.174998 40.109903 -15.297165 -0.360494 5.639901 28.097800 11.338768 0.000003 -0.000002 -0.000005 6.882275 2.840036 -61.140500 8.248007 7.640044 -89.897891 -0.000005 0.000001 0.000001 -2.345522 4.688859 -62.655224 8.754165 9.897041 -87.051253 0.000003 -0.000001 0.000001 -9.042487 10.045613 -60.766185 8.523965 9.508843 -66.892947 0.000001 0.000001 -0.000001 -17.946857 14.755031 -51.485911 8.868372 8.667017 -84.812078 -0.000001 0.000000 -0.000002 -0.000003 0.000001 -0.000001 -0.000003 0.000001 -0.000001 -0.000003 0.000001 -0.000001 -0.000001 0.000000 0.000004 -0.000001 0.000000 0.000001 -0.000001 0.000000 0.000004 -0.000002 0.000001 0.000004 0.099919 6.784904 8.707333 8.453915 -9.716549 53.843839 -22.782591 36.391388 17.920970 -26.906743 10.541919 -17.555702 -2.229113 -5.644467 10.223979 2.393471 -23.029680 -8.550832 0.000001 -0.000002 -0.000001 -0.031261 0.157248 3.080523 0.067432 -0.504275 7.959860 0.000002 0.000004 0.000000 0.376510 -6.306645 4.884745 1.639306 -4.634052 27.021847 0.000001 -0.000001 -0.000000 1.537623 -11.799176 6.930008 2.077795 -4.286920 30.313332 0.000000 0.000001 -0.000000 2.277206 -19.700299 14.604148 3.606955 -2.772438 22.891447 0.000001 0.000003 -0.000000 -0.000001 -0.000000 -0.000001 -0.000001 -0.000001 0.000001 -0.000001 -0.000000 -0.000000 -0.000002 0.000001 0.000003 -0.000002 0.000002 -0.000000 -0.000002 0.000001 0.000003 -0.000002 0.000002 0.000002 -0.000000 0.000000 -0.000000 -0.000000 0.000000 -0.000000 -0.000000 0.000000 -0.000000 -0.000000 0.000000 -0.000000 -0.000000 0.000000 -0.000000 -0.000000 0.000000 -0.000000 -0.000000 0.000000 -0.000000 -0.000000 0.000001 -0.000000 0.000000 -0.000001 -0.000000 
-2.526510 83.542915 0.982981 7.369446 -62.432983 7.672259 -0.000000 0.000000 -0.000000 -40.597442 6.949573 30.522643 43.238970 -8.608755 1.152697 -6.904963 -1.420583 -21.448382 0.000000 0.000002 0.000000 -0.000000 -0.000001 -0.000000 -30.575765 -16.412842 -38.661299 41.192092 7.739363 -4.060899 -15.249803 -2.326787 28.140335 -0.000000 -0.000000 0.000000 0.000001 0.000001 -0.000000 14.765143 -0.386927 -4.215185 5.731449 0.497496 -2.601732 5.728707 0.572383 -2.640778 -0.624900 0.392972 0.714081 -0.624904 0.393003 0.714067 -0.000000 -0.000002 0.000000 -0.624833 0.392986 0.714083 -0.624976 0.392997 0.714083 -0.000002 -0.000001 0.000001 -0.000000 -0.000002 0.000001 1.753350 -3.032290 -12.822381 -32.213826 23.425689 -33.713517 0.377246 -47.042866 0.374131 -16.387661 -0.524153 3.915352 40.109893 -15.297167 -0.360494 5.639903 28.097791 11.338774 0.000001 0.000000 -0.000008 6.882269 2.840035 -61.140493 8.248008 7.640049 -89.897891 -0.000003 0.000001 0.000001 -2.345526 4.688857 -62.655217 8.754158 9.897046 -87.051260 0.000004 0.000001 -0.000000 -9.042484 10.045615 -60.766185 8.523964 9.508848 -66.892953 -0.000000 0.000001 0.000001 -17.946858 14.755031 -51.485911 8.868373 8.667019 -84.812085 0.000002 -0.000003 0.000001 0.000003 0.000000 -0.000000 0.000003 0.000000 -0.000000 0.000002 0.000000 -0.000000 -0.000003 0.000001 0.000002 -0.000002 0.000000 -0.000001 -0.000003 0.000001 0.000002 -0.000004 0.000002 0.000001 -1.447327 6.161760 8.633111 9.394085 -10.760414 54.077104 -22.572469 37.039487 17.841272 -25.737466 10.731214 -17.031927 -2.096131 -5.152962 9.668793 2.419519 -22.184239 -8.315897 0.000002 -0.000001 0.000001 0.010649 -0.298153 5.838083 0.148001 -0.978317 11.261731 0.000000 -0.000002 0.000002 0.435414 -6.777986 7.554067 1.917829 -5.120872 30.524310 -0.000001 -0.000001 -0.000000 1.924888 -11.837260 10.016845 2.453723 -4.859681 34.305697 0.000000 0.000002 0.000000 2.496674 -20.238855 18.079680 3.985111 -3.472874 27.434964 -0.000000 -0.000002 -0.000001 -0.000000 -0.000002 -0.000000 -0.000000 -0.000001 0.000001 -0.000000 -0.000002 -0.000001 0.000002 -0.000002 -0.000003 0.000002 -0.000001 -0.000004 0.000002 -0.000002 -0.000003 0.000002 -0.000001 -0.000003 0.000001 -0.000002 0.000001 0.000001 -0.000002 0.000001 0.000001 -0.000002 0.000001 0.000001 -0.000002 0.000001 0.000001 -0.000002 0.000001 0.000001 -0.000002 0.000001 0.000001 -0.000002 0.000001 0.000002 0.000001 -0.000000 -0.000000 0.000000 -0.000000 
-2.548698 83.591003 0.928114 6.156023 -63.268684 6.265333 -0.000000 0.000001 -0.000000 -40.024417 7.255748 31.434651 43.751583 -8.936207 1.129919 -7.411722 -1.146278 -21.477322 0.000000 -0.000002 0.000000 0.000000 -0.000004 0.000001 -30.171425 -16.378884 -38.163802 41.025005 8.471000 -4.007552 -14.989251 -2.417267 27.728239 -0.000000 -0.000000 0.000000 -0.000000 0.000001 0.000002 14.414903 -0.344416 -4.124066 5.567096 0.412689 -2.385935 5.566064 0.484798 -2.409091 -0.517792 0.485814 0.686906 -0.517787 0.485809 0.686895 -0.000002 -0.000000 0.000001 -0.517725 0.485824 0.686903 -0.517786 0.485812 0.686910 -0.000002 0.000003 -0.000000 -0.000002 -0.000000 -0.000000 1.672539 -2.851050 -13.443086 -28.045996 22.205753 -32.670475 0.347587 -46.527228 0.330398 -19.859480 -1.433927 5.545884 40.109897 -15.297168 -0.360494 5.639901 28.097791 11.338771 0.000000 -0.000001 -0.000001 6.882274 2.840036 -61.140493 8.248005 7.640044 -89.897891 -0.000003 0.000002 -0.000000 -2.345523 4.688860 -62.655224 8.754160 9.897046 -87.051253 0.000005 0.000001 -0.000001 -9.042483 10.045611 -60.766185 8.523964 9.508846 -66.892940 -0.000001 0.000001 0.000002 -17.946857 14.755024 -51.485911 8.868377 8.667011 -84.812078 -0.000000 -0.000003 0.000002 0.000002 0.000001 0.000001 0.000002 0.000001 0.000001 0.000001 0.000001 0.000001 0.000002 0.000000 0.000002 0.000003 0.000000 -0.000001 0.000002 0.000000 0.000002 0.000002 0.000001 0.000001 -3.766296 5.416457 8.450675 10.628846 -12.718368 54.218209 -22.307111 38.229313 17.808325 -24.218143 10.776499 -16.612407 -1.948305 -4.635282 9.073843 2.440879 -21.283353 -8.070743 -0.000000 0.000000 0.000008 0.075708 -0.754061 8.595593 0.259677 -1.461749 14.669947 -0.000000 -0.000003 -0.000000 0.518905 -7.250109 10.225996 2.241026 -5.604551 34.164558 0.000000 -0.000001 -0.000000 2.292867 -11.852350 12.948995 2.872670 -5.404292 38.305139 0.000001 0.000001 -0.000000 2.696882 -20.720403 21.219504 4.399108 -4.103574 31.748195 -0.000000 -0.000004 0.000001 -0.000001 -0.000001 -0.000001 -0.000002 -0.000002 -0.000001 -0.000001 -0.000001 -0.000003 0.000004 0.000000 -0.000001 0.000004 0.000001 0.000002 0.000004 0.000000 -0.000001 0.000004 0.000001 0.000003 -0.000002 -0.000000 0.000002 -0.000002 -0.000000 0.000002 -0.000002 -0.000000 0.000002 -0.000002 -0.000000 0.000002 -0.000002 -0.000000 0.000002 -0.000002 -0.000000 0.000002 -0.000002 -0.000000 0.000002 -0.000000 -0.000003 0.000001 -0.000000 0.000001 -0.000000 
